<svg id="Layer_1" data-name="Layer 1" xmlns="http://www.w3.org/2000/svg" viewBox="0 0 33.78 32.04">
    <defs>
        <style>.cls-1{fill:#ffffff;}.cls-2{font-size:10px;fill:#ed2024;font-family:MyriadPro-Regular, Myriad Pro;}</style>
    </defs>
    <path class="cls-1" d="M29.27,20a13.78,13.78,0,0,1-.77,2H24.21c.15-.66.26-1.34.35-2h-2a20.24,20.24,0,0,1-.38,2H16.84V20h-2v2H9.52a19.57,19.57,0,0,1-.38-2h-2c.09.66.21,1.34.36,2H3.16a13.74,13.74,0,0,1-.76-2H.31a16,16,0,0,0,31,0ZM4.33,24H8A17.39,17.39,0,0,0,9.29,27.1,14,14,0,0,0,10.47,29,14.12,14.12,0,0,1,4.33,24Zm10.5,5.86c-1.34-.41-2.68-1.65-3.78-3.72A16.37,16.37,0,0,1,10.11,24h4.72Zm2,0V24h4.71a15.13,15.13,0,0,1-.94,2.14C19.5,28.22,18.18,29.46,16.84,29.87Zm4.34-.9a12.36,12.36,0,0,0,1.2-1.87A19,19,0,0,0,23.67,24h3.67A14.12,14.12,0,0,1,21.18,29Zm-18-19h4.3c-.12.54-.22,1.08-.3,1.65h2q.13-.83.33-1.65h5.31v1.65h2V10h5.31q.2.83.33,1.65h2c-.08-.57-.18-1.11-.3-1.65H28.5a15,15,0,0,1,.67,1.65h2.08a16,16,0,0,0-30.84,0H2.5A14.93,14.93,0,0,1,3.16,10ZM27.34,8H23.67a20.21,20.21,0,0,0-1.29-3.08A12.2,12.2,0,0,0,21.18,3,14.09,14.09,0,0,1,27.34,8ZM16.84,2.14c1.34.4,2.66,1.64,3.77,3.71A16.17,16.17,0,0,1,21.55,8H16.84Zm-2,0V8H10.11a17.59,17.59,0,0,1,.94-2.14C12.15,3.78,13.49,2.54,14.83,2.14ZM10.47,3A13.39,13.39,0,0,0,9.29,4.91,17.3,17.3,0,0,0,8,8H4.33A14.1,14.1,0,0,1,10.47,3Z" transform="translate(-0.31 0.02)" />
    <text x="-0.31" y="0.02" />
    <text class="cls-2" transform="translate(0.82 19.2)">uniNet</text>
</svg>